<svg width="25" height="25" viewBox="0 0 25 25" fill="none" xmlns="http://www.w3.org/2000/svg">
<path d="M7.16666 22.3333H3V9.83333H7.16666V22.3333ZM5.08417 8.16667C3.93167 8.16667 3 7.2325 3 6.0825C3 4.9325 3.93333 4 5.08417 4C6.2325 4 7.16666 4.93417 7.16666 6.0825C7.16666 7.2325 6.2325 8.16667 5.08417 8.16667ZM22.1667 22.3333H18.1608V16.25C18.1608 14.7992 18.1333 12.9333 16.0783 12.9333C13.9925 12.9333 13.6717 14.5133 13.6717 16.145V22.3333H9.66666V9.82417H13.5117V11.5333H13.5658C14.1008 10.55 15.4083 9.51333 17.3583 9.51333C21.4167 9.51333 22.1667 12.1042 22.1667 15.4725V22.3333Z" fill="white"/>
</svg>
